<svg width="18" height="18" viewBox="0 0 18 18" fill="none" xmlns="http://www.w3.org/2000/svg">
<path d="M16.9417 12.2748C16.8083 12.0498 16.4333 11.6998 15.5 11.8665C14.9833 11.9581 14.4583 11.9998 13.9333 11.9748C11.9917 11.8915 10.2333 10.9998 9.00833 9.62481C7.925 8.41648 7.25833 6.84148 7.25 5.14148C7.25 4.19148 7.43333 3.27481 7.80833 2.40815C8.175 1.56648 7.91667 1.12481 7.73333 0.941479C7.54167 0.749812 7.09167 0.483146 6.20833 0.849812C2.8 2.28315 0.691668 5.69981 0.941668 9.35814C1.19167 12.7998 3.60833 15.7415 6.80833 16.8498C7.575 17.1165 8.38333 17.2748 9.21667 17.3081C9.35 17.3165 9.48333 17.3248 9.61667 17.3248C12.4083 17.3248 15.025 16.0081 16.675 13.7665C17.2333 12.9915 17.0833 12.4998 16.9417 12.2748Z" fill="#051724"/>
</svg>
